<svg xmlns="http://www.w3.org/2000/svg" width="288" height="36" fill="none">
  <path fill="#2D2E82"
    d="M40.72 5.802C37.25 2.132 32.3 0 27.148 0c-1.378 0-2.704.149-3.98.446v-.05l-.408.1C21.384.149 19.955 0 18.476 0 13.374 0 8.374 2.132 4.906 5.802 1.385 9.52-.35 14.38.058 19.488.824 28.71 8.936 36 18.476 36h8.622c4.642 0 9.132-1.686 12.55-4.76 3.418-3.075 5.56-7.24 5.918-11.752.408-5.108-1.276-9.967-4.847-13.686ZM22.811 3.025C29.7 4.909 34.495 11.008 34.495 18c0 6.942-4.795 13.09-11.683 14.926C15.925 31.09 11.13 24.942 11.13 18c0-6.992 4.796-13.09 11.683-14.975Zm-5.357-.397c-.153.1-.306.149-.459.248l-.459.298-.357.297c-.051 0-.102.05-.102.1-.153.098-.306.247-.46.346-.305.248-.662.496-1.02.843l-.357.347a7.714 7.714 0 0 0-.612.645l-.357.298c-.05.05-.102.099-.153.198-.051.05-.153.149-.204.248l-.102.099c-.255.347-.561.694-.867 1.091-.255.347-.51.744-.766 1.14-.153.199-.255.447-.357.645-.102.198-.255.446-.357.645-.102.198-.204.446-.306.694-.102.198-.204.397-.255.595-.153.397-.306.744-.408 1.09a3.572 3.572 0 0 0-.204.695c-.051.149-.102.298-.102.397-.051.248-.102.496-.153.694v.05c-.051.198-.051.347-.102.545-.051.149-.051.298-.051.446v.15c-.051.148-.051.297-.051.445 0 .15-.051.348-.051.546v.099c0 .248-.051.496-.051.744v1.487c0 .248.05.496.05.695v.198c0 .149.052.347.052.496 0 .198.05.347.05.496 0 .198.052.347.103.496 0 .099.05.248.05.347l.052.198.51-.1-.46.15c.052.248.103.446.154.694.05.099.05.248.102.347.102.297.204.645.306.942.102.298.204.595.357.893.051.148.102.248.153.396l.153.298c.051.149.153.347.255.496l.051.099c.102.198.204.446.357.644.102.199.255.447.357.645.358.645.817 1.24 1.276 1.785.102.149.255.298.357.447.102.099.204.198.306.347.051.05.102.148.153.198.102.1.204.198.306.347l.357.347.46.447c.51.495 1.07.942 1.683 1.388.153.149.357.248.51.347.153.1.357.248.51.347l.052.05c.152.099.255.148.408.248l.05.05c-7.958-.397-14.54-6.447-15.152-14.232-.459-4.463 1.02-8.678 4.082-11.901 2.857-2.975 6.785-4.81 10.969-4.959-.051.05-.153.1-.255.15ZM36.995 18c0-6.446-3.52-12.298-9.132-15.52 4.183.198 8.163 1.983 10.969 4.958 3.06 3.223 4.54 7.438 4.183 11.802-.663 7.785-7.193 13.834-15.152 14.231 5.612-3.173 9.132-9.074 9.132-15.471ZM107.654 6.694c-1.173 0-2.041-.843-2.041-1.983 0-1.091.868-1.984 2.041-1.984s2.041.843 2.041 1.984c0 1.14-.919 1.983-2.041 1.983ZM105.868 11.058c0-.347.051-.446.408-.546.409-.05.868-.099 1.327-.099.459 0 .867 0 1.326.1.357.049.408.198.408.545V27.47c0 .347-.051.446-.408.546-.408.05-.867.099-1.326.099-.459 0-.867 0-1.327-.1-.357-.049-.408-.198-.408-.545V11.058ZM100.46 27.471v-9.868c0-5.107-2.55-7.289-6.887-7.289-3.469 0-4.897 1.24-5.663 1.983-.153.1-.204.1-.306.1h-.102c-.204 0-.306 0-.306-.199l-.153-1.24c-.051-.346-.204-.396-.561-.446-.408-.05-.766-.05-1.174-.05-.408 0-.816 0-1.173.05-.408.05-.46.199-.46.546v16.364c0 .347.052.495.409.545.46.1.867.1 1.326.1.46 0 .919-.05 1.327-.1.357-.1.408-.198.408-.545v-8.38c0-3.868 1.735-6.1 5.204-6.1 3.57 0 4.642 1.835 4.642 5.405v9.124c0 .347.051.496.408.546.46.099.868.099 1.327.099.459 0 .918-.05 1.326-.1.357-.099.408-.198.408-.545ZM74.799 19.488c0 4.016-1.327 6.099-5.153 6.099-3.418 0-4.49-1.736-4.49-5.157v-9.372c0-.347-.05-.496-.407-.546-.46-.099-.868-.099-1.327-.099-.46 0-.918.05-1.326.1-.357.099-.408.198-.408.545v10.215c0 5.107 2.907 6.992 7.04 6.992 3.316 0 4.847-1.439 5.255-1.835.153-.149.204-.149.408-.149h.102c.204 0 .255.05.306.198l.204 1.042c.051.347.153.396.51.446.357.1.714.1 1.174.1.417 0 .707-.042 1.025-.086l.097-.014c.408-.1.46-.149.46-.545V11.058c0-.347-.052-.496-.41-.546-.458-.099-.866-.099-1.325-.099-.46 0-.919.05-1.327.1-.357.099-.408.198-.408.545v8.43ZM124.439 10.512h-5.459c-.255 0-.357-.099-.357-.297V6.099c0-.347-.051-.496-.409-.545-.459-.1-.867-.1-1.326-.1-.459 0-.918.05-1.326.1-.358.099-.409.198-.409.545v16.066c0 4.215 2.449 5.901 6.378 5.901 1.938 0 2.908-.198 3.469-.347.306-.05.357-.149.408-.446v-.496a8.73 8.73 0 0 0-.102-1.24c-.051-.248-.153-.396-.357-.396h-.153a11.8 11.8 0 0 1-2.602.297c-2.347 0-3.622-.545-3.622-3.62v-8.28c0-.2.153-.348.408-.348h5.459c.306 0 .408-.05.459-.347.051-.248.051-.645.051-.992s0-.694-.051-.992c-.051-.247-.153-.347-.459-.347Z" />
  <path fill="#2D2E82" fill-rule="evenodd"
    d="M131.122 20.777c.255 3.719 3.265 4.81 6.887 4.81 2.833 0 5.314-.878 5.903-1.086l.015-.005c.06 0 .102-.017.137-.031.025-.01.046-.019.067-.019.204 0 .306.1.357.347.102.447.153 1.042.153 1.587 0 .546 0 .645-.459.843-.612.298-2.908 1.042-6.275 1.042-6.122 0-10.458-2.182-10.458-9.025 0-5.504 2.755-9.025 9.234-9.025 6.02 0 9.183 2.826 9.183 8.33 0 .595-.051 1.091-.102 1.389-.051.347-.153.397-.51.397H131.53c-.306.05-.408.148-.408.446Zm-.051-3.124c0 .198.102.297.408.297h10.459c.306 0 .408-.099.408-.396 0-3.174-1.939-4.86-5.51-4.86-3.571 0-5.51 1.587-5.714 4.86v.099h-.051ZM163.773 26.43h.153c.153 0 .255.05.306.148l.204.943c.102.347.153.396.51.446.357.1.766.1 1.174.1.417 0 .708-.042 1.025-.086l.097-.014c.408-.1.459-.149.459-.545V3.472c0-.348-.051-.497-.408-.546-.459-.1-.867-.1-1.326-.1-.459 0-.919.05-1.327.1-.357.099-.408.198-.408.545v8.182c0 .198-.051.248-.255.248h-.153c-.153 0-.204 0-.357-.1-.06-.038-.126-.084-.201-.136-.691-.48-2.086-1.45-5.309-1.45-4.694 0-8.571 2.578-8.571 9.174 0 6.644 3.928 8.876 8.724 8.876 3.341 0 4.706-1.206 5.229-1.668l.042-.038.035-.03c.102-.1.153-.1.357-.1Zm-5.051-.694c-4.336 0-5.867-2.48-5.867-6.447s1.48-6.496 5.867-6.446c4.337 0 5.867 2.48 5.867 6.446 0 3.967-1.53 6.447-5.867 6.447Z"
    clip-rule="evenodd" />
  <path fill="#2D2E82"
    d="M180.711 19.29c0 4.313 2.193 6.396 6.326 6.396 2.821 0 4.79-.697 5.615-.988l.15-.053a.345.345 0 0 0 .137-.032c.025-.01.046-.018.067-.018.204 0 .306.1.357.347.102.447.153.992.153 1.488 0 .545 0 .644-.459.843-.714.297-3.163 1.041-6.02 1.041-6.071 0-9.847-2.727-9.847-9.025 0-6.297 3.776-9.025 9.847-9.025 2.857 0 5.306.695 6.02 1.042.459.198.459.297.459.843 0 .496-.051 1.041-.153 1.487-.051.248-.153.348-.357.348-.051 0-.153 0-.204-.05l-.053-.017-.062-.021-.154-.052c-.909-.31-2.79-.951-5.496-.951-4.133 0-6.326 2.033-6.326 6.396Z" />
  <path fill="#2D2E82" fill-rule="evenodd"
    d="M206.219 10.264c-6.326 0-9.438 3.273-9.438 9.025 0 5.752 3.163 8.976 9.438 9.025 6.326 0 9.438-3.273 9.438-9.025 0-5.752-3.112-9.025-9.438-9.025Zm0 2.579c4.439 0 5.969 2.529 5.969 6.446 0 3.918-1.53 6.447-5.969 6.447-4.438 0-5.969-2.53-5.969-6.447 0-3.917 1.531-6.446 5.969-6.446ZM233.513 26.43h-.153c-.204 0-.255 0-.357.099l-.033.029-.044.039c-.523.462-1.888 1.668-5.229 1.668-4.795 0-8.724-2.232-8.724-8.877 0-6.595 3.878-9.173 8.571-9.173 3.224 0 4.618.97 5.31 1.45.074.052.141.098.2.137.153.099.204.099.357.099h.153c.204 0 .255-.05.255-.248V3.47c0-.347.051-.446.409-.545.408-.05.867-.1 1.326-.1.459 0 .867 0 1.326.1.358.05.409.198.409.545v23.95c0 .397-.051.447-.46.546l-.097.014a6.661 6.661 0 0 1-1.025.085c-.408 0-.816 0-1.173-.099-.357-.05-.408-.1-.51-.446l-.205-.943c-.051-.099-.102-.148-.306-.148Zm-11.07-7.14c0 3.966 1.53 6.446 5.867 6.446 4.336 0 5.867-2.48 5.867-6.447s-1.531-6.446-5.867-6.446c-4.337-.05-5.867 2.48-5.867 6.446ZM252.186 25.587c-3.623 0-6.633-1.091-6.888-4.81 0-.298.102-.397.409-.446h13.723c.357 0 .459-.05.51-.397.051-.298.102-.794.102-1.389 0-5.504-3.163-8.33-9.183-8.33-6.479 0-9.234 3.52-9.234 9.025 0 6.843 4.337 9.025 10.459 9.025 3.367 0 5.663-.744 6.275-1.042.459-.198.459-.297.459-.843 0-.545-.051-1.14-.153-1.587-.051-.247-.153-.347-.357-.347-.021 0-.042.009-.067.019a.345.345 0 0 1-.137.03l-.015.006c-.589.208-3.071 1.086-5.903 1.086Zm-6.531-7.637c-.306 0-.408-.099-.408-.297h.051v-.1c.204-3.272 2.143-4.859 5.714-4.859 3.572 0 5.51 1.686 5.51 4.86 0 .297-.102.396-.408.396h-10.459Z"
    clip-rule="evenodd" />
  <path fill="#2D2E82"
    d="M272.082 12.744c-2.295 0-4.591.396-4.591 2.28 0 1.687 1.632 1.935 4.999 2.43 4.745.744 7.755 1.488 7.755 5.505 0 4.413-4.54 5.306-8.673 5.306-3.061 0-6.173-.546-7.193-.893-.357-.1-.408-.198-.459-.546-.051-.545-.051-1.338.153-1.933.102-.348.255-.348.612-.298 1.02.298 3.826 1.041 7.04 1.041 2.5 0 5.051-.297 5.051-2.479 0-1.537-.867-2.033-4.643-2.628-4.54-.645-8.06-1.339-8.06-5.306 0-4.314 4.438-5.058 8.366-5.058 3.113 0 5.765.695 6.327.893.306.099.408.198.408.496V12c0 .446-.051.992-.153 1.339-.051.198-.153.297-.306.297-.051 0-.153 0-.255-.05-.156 0-.563-.078-1.128-.186-1.29-.249-3.405-.656-5.25-.656Z" />
  <path fill="#2D2E82" fill-rule="evenodd"
    d="M284.735 26.926c0 .05 0 .05.051.05s.153 0 .153.049h.204c.025 0 .038 0 .044-.006.007-.007.007-.02.007-.044v-.595c0-.05 0-.05.051-.05h.51c.051 0 .051 0 .102.05l.459.595c.051.05.051.05.102.05h.459c.102 0 .102-.05.051-.1l-.561-.694c-.051 0 0-.05 0-.05.204-.148.408-.297.408-.693 0-.546-.357-.794-.969-.794h-.969c-.051 0-.102.05-.102.1v2.132Zm.918-1.885c.357 0 .663.05.663.447 0 .396-.306.446-.663.446h-.357c-.051 0-.051 0-.051-.05v-.793c0-.05 0-.05.051-.05h.357Z"
    clip-rule="evenodd" />
  <path fill="#2D2E82" fill-rule="evenodd"
    d="M288 25.934c0-1.389-.919-2.182-2.296-2.182-1.378 0-2.296.794-2.296 2.182s.918 2.182 2.296 2.182c1.377 0 2.296-.794 2.296-2.182Zm-.459 0c0 1.14-.664 1.785-1.837 1.785-1.122 0-1.837-.645-1.837-1.785s.664-1.785 1.837-1.785c1.122 0 1.837.644 1.837 1.785Z"
    clip-rule="evenodd" />
</svg>
